<svg xmlns="http://www.w3.org/2000/svg" viewBox="170 160 230 240">
  <path fill="#FFFFFF" d="M379.575195,349.355133 C372.069397,371.909058 347.595490,389.035278 332.921661,390.169006 C332.700104,388.804810 333.900208,388.556915 334.662415,388.036621 C355.010071,374.146301 363.957733,354.504883 361.376343,330.455261 C358.866364,307.070679 344.275665,292.415222 322.833496,284.387634 C306.340118,278.212769 288.862427,276.647247 271.559448,274.228241 C255.967041,272.048401 240.669754,268.308258 228.076279,258.154175 C212.466934,245.568420 209.635803,228.792496 214.235001,210.308212 C220.041031,186.973679 241.537491,170.574982 266.485382,169.692352 C281.695404,169.154236 296.341980,171.540390 310.451294,177.231857 C319.006989,180.683105 327.870972,182.865250 337.075989,183.503906 C345.575317,184.093597 352.597687,187.965561 357.788452,194.277420 C365.489502,203.641800 373.892303,212.623138 379.250366,223.660538 C384.417358,234.304398 376.290955,245.668152 364.492035,243.702988 C350.863678,241.433075 337.660828,237.135056 325.047760,231.395905 C319.827789,229.020737 315.882294,224.904938 312.593384,220.122559 C301.428040,203.887222 285.218964,199.914230 266.925079,202.363922 C256.004730,203.826233 250.150970,210.587830 249.177292,220.918198 C248.129776,232.032135 252.261185,238.893280 262.987549,242.998199 C272.890747,246.788086 283.483887,247.226685 293.850403,248.676483 C316.693665,251.871201 338.571533,257.409454 357.195099,272.160706 C380.093719,290.298065 389.299988,321.146637 379.575195,349.355133z"/>
  <path fill="#FFFFFF" d="M184.705597,259.021423 C172.367889,220.232330 200.245529,184.846115 228.955475,176.264450 C229.343567,178.533554 227.292618,178.886322 226.124268,179.802002 C205.405334,196.040207 197.944107,226.233795 209.492981,248.561676 C216.443100,261.998566 228.297150,269.890442 241.972931,275.235779 C258.426025,281.666687 275.972443,282.940704 293.203613,285.709991 C308.906097,288.233643 324.289551,291.761017 337.196350,301.939423 C347.697144,310.220428 352.438568,321.308105 353.357544,334.401855 C354.718079,353.786774 348.435394,369.972107 333.911285,383.037292 C321.060913,394.596832 300.415497,397.573303 284.832001,390.152405 C271.176971,383.649841 261.519318,372.626282 251.695633,361.749451 C247.118225,356.681305 242.663651,351.506226 237.403290,347.112366 C223.656311,335.629883 208.469727,334.375305 192.993622,343.414642 C189.769180,345.298004 186.511612,347.124634 182.872070,348.537872 C185.284241,339.559692 191.010941,333.044556 198.192245,327.903687 C214.470078,316.251007 234.160660,316.747833 251.884216,328.725830 C260.334198,334.436523 267.610107,341.581390 275.633148,347.806030 C282.641144,353.243073 289.939606,358.151154 298.901855,359.860443 C311.325165,362.229797 322.590485,356.452789 325.493317,346.171509 C328.835144,334.335419 322.976318,323.987183 310.312836,319.209198 C299.621033,315.175201 288.380157,313.829376 277.176544,312.269684 C258.517761,309.672058 240.019180,306.360779 222.746185,298.406952 C205.132294,290.296204 191.593536,278.106903 184.705597,259.021423z"/>
</svg>
