<svg width="677" height="231" viewBox="0 0 677 231" fill="none" xmlns="http://www.w3.org/2000/svg">
<path d="M103.985 99.1114C120.975 99.1114 137.964 99.1114 155.289 99.1114C154.382 99.978 153.406 100.91 151.813 101.806C144.674 101.767 139.017 104.09 134.182 108.355C120.128 120.753 106.195 133.289 92.0794 145.616C80.0829 156.092 67.7296 166.163 55.8472 176.764C45.5643 185.939 35.7647 195.653 25.6588 205.028C22.4436 208.011 19.0292 210.807 15.5007 213.41C14.2775 214.312 12.4336 214.373 10.8733 214.818C23.6307 195.996 36.2817 177.1 49.183 158.377C57.7416 145.957 66.6586 133.783 75.4592 121.437C59.7332 121.437 43.5746 121.437 26.6032 121.437C51.2892 94.3241 75.5642 67.6622 100.305 40.4886C70.6978 40.4886 42.2445 40.4886 13.0524 40.4886C17.0586 27.0953 21.0562 13.7313 25.0965 0.224121C76.1408 0.224121 126.891 0.224121 178.598 0.224121C177.18 2.02682 176.124 3.36792 174.584 4.63809C172.752 4.37549 171.343 3.83029 170.069 4.05457C165.101 4.92905 161.588 7.75803 158.451 11.8228C151.575 20.7328 143.808 28.9612 137.041 37.9468C132.099 44.5077 128.496 52.0634 123.714 58.7603C117.394 67.6128 110.166 75.8262 104.003 84.7787C100.916 89.2633 99.1548 94.7152 97.2514 99.8976C96.9908 100.607 99.2806 103.181 100.577 103.337C103.094 103.64 105.199 102.416 103.985 99.1114ZM26.9475 35.0515C23.8722 35.9494 20.7968 36.8474 17.7215 37.7454C18.4193 38.766 18.8771 38.9447 19.335 38.945C45.3158 38.961 71.2965 38.9639 97.2773 38.9568C98.106 38.9566 99.0108 39.023 99.7411 38.7216C100.41 38.4456 101.453 37.4952 101.348 37.2229C101.044 36.4386 100.351 35.4782 99.6132 35.262C98.3727 34.8984 96.9765 34.9655 95.651 35.0089C87.5139 35.2752 79.377 35.8614 71.2426 35.821C56.7785 35.7492 42.3163 35.3067 26.9475 35.0515ZM78.075 116.264C77.8143 116.063 77.551 115.684 77.2935 115.688C65.5249 115.866 53.755 116.012 41.9906 116.349C39.931 116.408 37.895 117.29 35.8481 117.792C35.9037 118.288 35.9592 118.785 36.0148 119.281C37.564 119.496 39.1178 119.924 40.6616 119.891C52.1271 119.641 63.5927 119.354 75.0512 118.899C76.1786 118.854 77.258 117.599 78.075 116.264Z" fill="#21F575"/>
<path d="M314.861 225.034C315.259 227.377 314.86 228.83 311.897 228.796C301.591 228.677 291.283 228.749 280.282 228.749C290.88 167.229 301.312 106.67 311.768 45.9678C322.917 45.9678 333.681 45.9678 344.805 45.9678C343.889 50.6806 343.024 55.1272 342.019 60.3004C350.702 52.0212 359.839 46.0213 371.066 43.4561C395.488 37.8761 420.293 48.857 430.169 70.3235C436.473 84.0275 437.197 98.5477 434.543 113.242C433.603 118.444 432.07 123.538 430.414 128.652C430.242 127.165 430.26 125.641 430.716 124.262C434.504 112.799 434.496 100.961 433.858 89.1535C433.255 77.9782 428.633 68.2731 421.283 59.8879C420.434 58.9194 419.18 58.306 418.114 57.528C417.742 57.8308 417.371 58.1336 416.999 58.4363C417.585 59.8572 418.24 61.2539 418.744 62.7032C421.236 69.8663 424.569 76.8832 425.91 84.2598C427.283 91.8153 427.083 99.7407 426.828 107.48C426.65 112.877 426.013 118.529 424.147 123.533C421.701 130.093 418.098 136.278 414.506 142.336C411.933 146.676 408.799 150.747 405.498 154.578C397.933 163.357 389.875 171.76 377.418 172.858C361.353 174.275 345.589 172.71 330.474 166.623C330.474 166.623 330.359 166.554 330.338 166.269C330.237 165.692 330.094 165.433 329.888 165.209C329.888 165.209 329.793 165.176 329.835 164.716C330.073 162.268 330.914 160.048 330.301 158.353C329.54 156.249 327.884 154.029 325.993 152.976C325.15 152.508 321.94 154.386 321.269 155.864C318.878 161.124 316.251 166.521 315.292 172.136C313.028 185.388 311.618 198.789 309.969 212.143C308.972 220.219 306.076 222.965 298.118 222.986C294.453 222.996 290.774 222.831 287.13 223.116C285.532 223.242 284.007 224.295 281.585 225.278C283.325 226.272 283.732 226.702 284.156 226.718C293.292 227.076 302.428 227.48 311.567 227.585C312.655 227.597 313.763 225.925 314.861 225.034ZM396.237 80.5527C399.411 76.3988 397.226 73.3421 394.006 70.7568C385.189 63.677 374.881 61.8122 363.994 63.121C360.189 63.5783 356.421 65.1291 352.872 66.7105C349.261 68.3195 346.135 71.6739 342.453 72.3283C334.941 73.6634 331.545 78.3813 329.968 84.88C328.037 92.838 325.758 100.877 325.277 108.979C324.681 119.01 325.733 129.142 326.153 139.227C326.461 146.604 330.743 150.811 337.595 152.34C339.208 152.701 341.208 151.324 343.74 150.954C357.219 158.359 372.197 156.526 383.939 146.541C399.456 133.345 408.798 100.127 396.237 80.5527ZM346.282 154.569C347.097 155.319 347.912 156.07 348.728 156.821C349.076 156.371 349.425 155.921 349.774 155.471C348.786 155.117 347.798 154.763 346.282 154.569Z" fill="#21F575"/>
<path d="M174.045 228.754C172.12 228.754 170.196 228.754 167.581 228.754C172.279 220.889 176.776 213.781 180.846 206.437C185.265 198.464 191.563 190.611 192.839 182.078C194.104 173.627 190.391 164.333 188.406 155.512C180.194 119.023 171.809 82.5729 163.448 45.9391C175.469 45.9391 187.553 45.9391 199.759 45.9391C205.66 77.5598 211.52 108.963 217.555 141.299C218.587 139.754 219.328 138.866 219.831 137.858C234.296 108.886 248.836 79.9506 263.063 50.8621C264.973 46.9565 267.026 45.6973 271.266 45.8363C281.727 46.1792 292.207 45.9487 303.775 45.9487C302.115 48.7799 300.913 50.8292 299.417 52.7004C299.486 47.327 296.19 48.4236 294.379 50.473C289.918 55.5229 285.731 60.9018 282.095 66.5723C278.085 72.8245 274.938 79.6218 271.189 86.0503C266.607 93.9087 261.492 101.468 257.152 109.453C251.861 119.185 247.135 129.223 242.169 139.131C234.659 154.115 226.866 168.865 217.191 182.686C211.053 191.456 206.717 201.533 201.988 211.226C198.973 217.406 194.536 220.51 187.689 221.123C183.968 221.455 180.233 222.813 176.777 224.33C175.47 224.903 174.933 227.227 174.045 228.754ZM205.98 117.586C207.118 131.357 210.552 140.893 215.289 142.401C215.363 141.228 215.653 140.118 215.466 139.097C210.234 110.613 204.987 82.1306 199.602 53.675C199.251 51.8217 197.768 50.1827 196.811 48.444C195.885 50.5154 194.896 52.5623 194.075 54.6746C193.86 55.2265 194.118 55.9922 194.246 56.6424C195.657 63.7772 197.117 70.9023 198.502 78.0421C201.002 90.9327 203.46 103.831 205.98 117.586Z" fill="#21F575"/>
<path d="M526.935 147.716C526.947 147.413 527.084 147.187 527.897 146.936C529.26 145.839 530.075 144.843 530.89 143.847C530.89 143.847 530.924 143.953 531.288 143.917C543.275 140.734 554.988 141.6 566.716 143.091C566.716 143.091 566.677 143.246 566.347 143.423C565.726 144.137 565.435 144.673 565.144 145.209C565.144 145.209 565.075 145.066 564.939 145.253C564.549 145.98 564.294 146.521 564.039 147.062C564.039 147.062 564.009 147.008 563.745 147.176C562.69 148.616 561.898 149.889 561.107 151.161C561.107 151.161 561.091 151.056 560.867 151.207C560.216 152.061 559.789 152.763 559.362 153.466C559.362 153.466 559.379 153.326 559.123 153.436C558.283 154.423 557.699 155.299 557.116 156.174C557.116 156.174 557.11 156.104 556.818 156.182C555.408 157.634 554.29 159.008 553.173 160.382C553.173 160.382 553.078 160.139 552.985 160.301C552.618 160.755 552.344 161.047 552.07 161.339C552.07 161.339 552.142 161.094 551.963 161.25C551.217 162.02 550.652 162.635 550.086 163.25C550.086 163.25 550.073 163.086 549.878 163.218C549.128 163.941 548.574 164.532 548.021 165.123C548.021 165.123 548.042 165.047 547.752 165.12C546.745 165.956 546.027 166.718 545.31 167.48C545.31 167.48 545.144 167.286 545.02 167.385C544.595 167.719 544.294 167.953 543.993 168.188C543.993 168.188 544.102 168.06 543.827 168.145C542.375 169.174 541.197 170.119 540.02 171.065C540.02 171.065 540.009 171.004 539.656 171.039C537.909 171.575 536.452 171.944 535.134 172.596C520.739 179.712 505.555 182.856 489.691 180.078C480.955 178.548 472.493 175.449 463.908 173.057C463.908 173.057 463.972 173.036 463.81 172.793C462.742 172.052 461.835 171.553 460.929 171.054C460.929 171.054 460.976 171.013 460.821 170.851C460.414 170.463 460.163 170.238 459.912 170.012C459.912 170.012 460.004 170.071 459.835 169.82C458.667 168.774 457.669 167.979 456.671 167.183C456.671 167.183 456.825 167.048 456.689 166.94C456.294 166.567 456.034 166.303 455.775 166.038C455.775 166.038 455.943 166.134 455.806 165.876C454.769 163.553 453.87 161.488 452.97 159.424C453.271 158.895 453.571 158.366 453.872 157.837C456.56 158.765 459.45 159.333 461.895 160.698C466.82 163.445 467.766 163.393 468.008 158.074C468.284 152.001 468.237 145.805 467.339 139.81C465.728 129.06 465.223 118.719 471.696 109.152C472.481 107.991 472.109 105.986 472.117 104.372C472.141 99.1029 471.364 93.7003 472.297 88.6059C473.081 84.3247 475.047 79.7114 477.901 76.4989C481.331 72.6376 486.045 69.7447 490.584 67.0815C496.999 63.3175 502.468 56.8703 511.507 59.7439C514.375 60.6558 517.384 59.1221 515.951 54.9203C514.934 51.9403 516.707 50.9318 518.986 50.3494C523.65 49.1572 527.832 50.6029 530.687 54.1454C535.452 60.0572 539.722 66.3727 544.11 72.5817C547.31 77.109 546.621 79.2899 541.414 81.5398C541.385 81.3482 541.764 81.2696 541.571 81.0825C541.209 80.5856 541.04 80.276 540.931 80.024C540.99 80.0816 540.874 80.1993 540.797 79.8964C540.323 79.1179 539.927 78.6423 539.649 78.1955C539.767 78.2244 539.705 78.4591 539.609 78.2261C539.15 77.6662 538.787 77.3393 538.129 76.8106C529.829 69.4679 520.554 68.1446 510.263 69.9563C496.135 72.4437 482.243 85.4349 480.461 98.9914C482.721 99.5195 484.664 100.002 486.611 100.014C498.08 100.085 509.552 100.19 521.018 100.004C532.264 99.8219 543.17 100.075 550.74 110.478C551.47 111.482 554.433 111.875 555.674 111.231C557.13 110.475 558.539 108.332 558.674 106.685C558.817 104.94 557.375 103.092 556.746 101.248C556.239 99.7622 555.059 97.4898 555.638 96.8097C560.722 90.8376 556.047 86.1192 553.641 81.4327C551.759 77.7662 551.753 75.4417 555.818 74.1025C558.542 73.2055 559.029 71.5573 558.262 69.1121C557.12 65.4723 556.084 61.7963 554.831 58.1956C553.839 55.3433 554.429 53.9721 557.668 54.4485C558.814 54.6172 559.966 54.7487 561.115 54.8972C561.115 54.8972 561.07 54.9631 561.202 55.1339C561.584 55.5321 561.835 55.7595 562.086 55.9869C562.086 55.9869 562.012 55.9884 562.183 56.1435C562.611 56.5262 562.867 56.7539 563.124 56.9815C563.124 56.9815 563.031 57.0061 563.195 57.1459C563.607 57.5212 563.854 57.7567 564.101 57.9922C564.101 57.9922 564.014 57.9989 564.179 58.1433C564.588 58.5229 564.832 58.7582 565.075 58.9934C565.075 58.9934 565.023 58.9478 565.107 59.2157C565.52 59.9724 565.848 60.4613 566.177 60.9501C567.802 63.3679 569.427 65.7858 571.051 68.7795C575.722 84.0737 576.131 98.9437 573.399 114.119C572.552 118.827 570.689 120.086 566.243 120.052C544.6 119.888 522.954 119.978 501.309 119.98C493.984 119.981 486.65 119.809 479.337 120.123C477.588 120.198 474.52 121.778 474.421 122.879C473.72 130.66 473.271 138.584 479.465 144.853C479.465 144.853 479.171 144.877 479.314 144.981C479.687 145.397 479.917 145.709 480.148 146.022C480.148 146.022 480.019 145.94 480.154 146.151C480.733 146.712 481.177 147.061 481.62 147.41C481.62 147.41 481.524 147.822 481.625 147.927C482.331 148.467 482.937 148.903 483.543 149.339C483.543 149.339 483.328 149.323 483.542 149.682C485.491 151.032 487.226 152.022 488.961 153.012C488.961 153.012 488.995 152.981 489.209 153.288C498.985 160.059 516.405 157.349 525.677 150.325C526.362 149.806 526.528 148.602 526.935 147.716ZM561.922 94.7222C561.953 94.9026 561.985 95.083 562.016 95.2634C562.06 95.0861 562.103 94.9087 561.922 94.7222Z" fill="#12F56E"/>
<path d="M610.783 172.024C610.466 174.276 610.149 176.527 609.769 179.231C598.476 179.231 587.376 179.231 575.974 179.231C583.681 134.964 591.395 90.6584 599.179 45.9485C610.338 45.9485 621.41 45.9485 633.066 45.9485C632.162 51.3654 631.232 56.9277 630.014 64.2197C641.822 47.3264 656.955 41.2355 676.431 43.6435C674.043 53.8283 671.721 63.7288 669.268 74.1912C663.945 74.1912 658.495 74.1912 652.918 73.9507C656.578 73.4579 660.393 73.3978 664.141 72.8623C665.732 72.6349 668.227 71.698 668.529 70.5949C670.736 62.5461 672.49 54.3729 674.528 45.6339C671.717 46.7567 669.547 47.0991 668.108 48.3099C665.318 50.6575 660.72 53.6222 660.864 56.0997C661.143 60.9185 658.967 62.9823 655.699 64.6054C651.1 66.8899 646.351 69.019 641.454 70.5253C631.222 73.6727 622.818 78.7573 619.035 89.3956C617.718 93.1022 616.465 96.8553 615.538 100.673C612.925 111.436 610.112 122.172 608.107 133.053C606.281 142.969 605.5 153.073 604.089 163.07C603.14 169.792 600.041 172.413 592.858 172.936C590.703 173.092 588.461 172.674 586.384 173.113C583.718 173.677 581.178 174.84 578.583 175.745C578.712 176.342 578.841 176.938 578.969 177.535C580.523 177.683 582.076 177.945 583.632 177.959C589.292 178.011 594.984 177.616 600.606 178.087C605.748 178.517 609.284 177.236 610.783 172.024Z" fill="#21F575"/>
<path d="M541.444 81.7314C546.621 79.2899 547.31 77.1091 544.11 72.5817C539.722 66.3727 535.452 60.0572 530.687 54.1454C527.832 50.6029 523.65 49.1573 518.986 50.3495C516.708 50.9318 514.934 51.9403 515.951 54.9203C517.384 59.1222 514.375 60.6558 511.507 59.7439C502.468 56.8703 496.999 63.3175 490.584 67.0815C486.045 69.7448 481.331 72.6377 477.901 76.499C475.047 79.7114 473.081 84.3247 472.297 88.6059C471.364 93.7003 472.141 99.1029 472.117 104.372C472.109 105.986 472.481 107.991 471.696 109.152C465.223 118.719 465.728 129.06 467.339 139.81C468.237 145.805 468.284 152.001 468.008 158.074C467.766 163.393 466.82 163.445 461.895 160.698C459.45 159.333 456.56 158.765 453.872 157.837C453.571 158.366 453.271 158.895 452.97 159.424C453.87 161.488 454.769 163.553 455.757 165.96C447.615 158.824 443.958 148.901 443.26 138.398C441.303 108.948 448.78 82.4275 470.346 61.1282C494.442 37.3307 539.799 36.3328 560.971 54.5915C559.966 54.7488 558.814 54.6172 557.668 54.4486C554.43 53.9722 553.839 55.3433 554.831 58.1956C556.084 61.7964 557.12 65.4723 558.262 69.1121C559.029 71.5573 558.542 73.2055 555.818 74.1026C551.753 75.4418 551.759 77.7662 553.642 81.4327C556.047 86.1193 560.722 90.8376 555.638 96.8097C555.059 97.4899 556.239 99.7622 556.746 101.248C557.375 103.092 558.817 104.94 558.674 106.685C558.539 108.332 557.13 110.475 555.674 111.231C554.433 111.875 551.47 111.482 550.74 110.478C543.17 100.075 532.265 99.8219 521.018 100.004C509.552 100.19 498.08 100.085 486.611 100.014C484.665 100.002 482.721 99.5195 480.918 98.9497C502.032 98.6452 523.004 98.6452 545.228 98.6452C543.856 92.5151 542.65 87.1233 541.444 81.7314Z" fill="#21F575"/>
<path d="M174.43 228.847C174.933 227.228 175.47 224.903 176.777 224.33C180.233 222.813 183.968 221.455 187.689 221.123C194.536 220.511 198.973 217.406 201.988 211.226C206.717 201.533 211.053 191.456 217.191 182.687C226.866 168.865 234.659 154.115 242.169 139.131C247.135 129.223 251.861 119.185 257.152 109.453C261.492 101.468 266.607 93.9088 271.189 86.0504C274.938 79.6219 278.085 72.8245 282.095 66.5724C285.731 60.9018 289.918 55.523 294.379 50.4731C296.19 48.4237 299.486 47.3271 299.099 52.8638C294.34 62.0463 289.682 70.9299 284.856 79.7211C259.963 125.069 235.027 170.394 210.105 215.727C209.786 216.308 209.35 216.855 209.167 217.476C206.122 227.804 199.055 231.045 188.949 229.064C187.985 228.875 186.957 229.018 185.172 228.762C182.252 228.616 180.118 228.714 177.984 228.812C176.927 228.855 175.871 228.897 174.43 228.847Z" fill="#12F56E"/>
<path d="M610.889 171.699C609.284 177.236 605.748 178.517 600.606 178.087C594.984 177.616 589.292 178.011 583.632 177.959C582.076 177.945 580.523 177.683 578.969 177.535C578.84 176.938 578.712 176.342 578.583 175.745C581.177 174.84 583.717 173.677 586.384 173.113C588.461 172.674 590.703 173.092 592.858 172.936C600.041 172.413 603.14 169.792 604.089 163.07C605.5 153.073 606.281 142.969 608.107 133.053C610.111 122.172 612.925 111.436 615.538 100.673C616.465 96.8553 617.717 93.1022 619.035 89.3956C622.818 78.7573 631.222 73.6727 641.454 70.5253C646.351 69.019 651.1 66.8899 655.699 64.6054C658.966 62.9823 661.143 60.9185 660.863 56.0997C660.72 53.6222 665.318 50.6575 668.108 48.3099C669.547 47.0991 671.717 46.7567 674.528 45.6339C672.49 54.3729 670.736 62.5461 668.529 70.5949C668.227 71.698 665.732 72.6349 664.141 72.8623C660.393 73.3978 656.578 73.4579 652.459 73.954C652.128 74.1978 652.159 74.1363 651.808 74.1288C650.299 74.4966 649.139 74.8721 647.98 75.2475C647.98 75.2475 648.058 75.0868 647.768 75.1126C645.999 75.8086 644.519 76.4787 643.04 77.1488C638.976 80.6752 634.912 84.2017 630.362 88.0875C629.61 88.7069 629.344 88.9669 629.078 89.227C629.078 89.227 629.283 89.0291 629.075 89.3124C626.352 95.6299 623.098 101.474 621.49 107.741C618.861 117.988 617.116 128.478 615.37 138.928C614.43 144.552 614.265 150.305 613.75 156C613.626 156.626 613.503 157.253 613.217 158.299C613.054 158.72 613.126 158.581 613.126 158.581C612.415 162.845 611.705 167.11 610.889 171.699Z" fill="#12F56E"/>
<path d="M330.612 166.914C345.589 172.71 361.353 174.275 377.418 172.858C389.875 171.76 397.933 163.357 405.498 154.578C408.799 150.747 411.933 146.676 414.506 142.336C418.098 136.278 421.701 130.093 424.147 123.533C426.013 118.529 426.65 112.877 426.828 107.48C427.083 99.7407 427.283 91.8152 425.91 84.2598C424.569 76.8831 421.236 69.8662 418.744 62.7031C418.24 61.2538 417.585 59.8571 416.999 58.4362C417.371 58.1335 417.742 57.8307 418.114 57.528C419.18 58.3059 420.434 58.9193 421.283 59.8878C428.633 68.273 433.255 77.9781 433.859 89.1534C434.496 100.961 434.504 112.799 430.716 124.262C430.26 125.641 430.242 127.165 430.159 128.909C425.283 142.614 418.705 155.049 407.373 165.111C406.557 165.629 406.274 165.868 405.992 166.107C405.992 166.107 406.031 165.974 405.892 166.16C405.5 166.592 405.248 166.84 404.996 167.087C404.996 167.087 404.997 166.999 404.847 167.161C404.468 167.57 404.237 167.817 404.007 168.064C404.007 168.064 404.004 168.004 403.749 168.128C403.086 168.687 402.679 169.122 402.271 169.557C402.271 169.557 402.279 169.321 402.038 169.38C400.207 170.67 398.616 171.902 397.026 173.134C397.026 173.134 397.045 173.055 396.714 173.078C393.968 174.545 391.553 175.99 389.138 177.435C389.138 177.435 389.182 177.274 388.887 177.29C387.148 178.065 385.704 178.825 384.26 179.585C384.26 179.585 384.224 179.481 383.854 179.401C381.693 179.563 379.859 179.633 378.119 180.076C368.997 182.399 359.885 182.832 350.767 180.15C347.471 179.181 344.21 178.092 340.933 177.057C340.933 177.057 340.996 177.015 340.878 176.723C339.455 175.656 338.15 174.881 336.845 174.106C336.845 174.106 336.914 174.011 336.755 173.86C336.292 173.499 335.988 173.288 335.684 173.078C334.039 171.12 332.394 169.162 330.612 166.914Z" fill="#12F56E"/>
<path d="M10.8739 214.831C12.4337 214.373 14.2775 214.312 15.5007 213.41C19.0292 210.807 22.4436 208.011 25.6588 205.028C35.7647 195.653 45.5643 185.939 55.8472 176.764C67.7296 166.163 80.083 156.092 92.0795 145.616C106.195 133.289 120.128 120.753 134.182 108.355C139.017 104.09 144.674 101.767 151.507 101.924C127.358 123.617 102.929 145.191 78.426 166.68C61.6686 181.376 44.8221 195.971 27.9842 210.575C21.5002 216.199 15.0274 221.845 8.33847 227.218C6.3748 228.795 3.68665 229.471 1.33051 230.56C1.09181 230.148 0.853134 229.737 0.614441 229.325C1.49443 227.974 2.3744 226.622 3.9416 225.128C10.2729 224.221 11.2049 222.71 10.8702 214.868C10.8702 214.868 10.8746 214.844 10.8739 214.831Z" fill="#12F56E"/>
<path d="M103.742 98.9336C105.199 102.415 103.094 103.64 100.577 103.337C99.2806 103.181 96.9908 100.607 97.2514 99.8975C99.1548 94.7151 100.916 89.2632 104.003 84.7786C110.166 75.8261 117.394 67.6127 123.714 58.7602C128.496 52.0633 132.099 44.5076 137.041 37.9467C143.808 28.9611 151.575 20.7327 158.451 11.8227C161.588 7.75793 165.101 4.92895 170.069 4.05446C171.343 3.83019 172.752 4.37539 174.327 4.84371C174.555 5.12038 174.512 5.09209 174.251 5.31557C173.673 6.08559 173.356 6.6321 173.039 7.17864C159.467 25.2247 145.946 43.31 132.304 61.3032C122.789 73.8529 113.107 86.2761 103.742 98.9336Z" fill="#12F56E"/>
<path d="M314.987 224.655C313.763 225.925 312.656 227.597 311.567 227.585C302.428 227.48 293.292 227.076 284.156 226.718C283.732 226.702 283.325 226.272 281.585 225.278C284.007 224.295 285.532 223.242 287.13 223.116C290.774 222.831 294.453 222.996 298.118 222.986C306.076 222.965 308.972 220.219 309.969 212.143C311.618 198.789 313.028 185.388 315.292 172.136C316.251 166.521 318.878 161.124 321.269 155.864C321.94 154.386 325.151 152.508 325.993 152.976C327.884 154.029 329.54 156.249 330.301 158.353C330.914 160.048 330.073 162.268 329.85 164.667C328.882 163.468 327.941 161.857 326.517 159.418C323.927 174.32 321.503 188.354 319.045 202.382C317.765 209.686 316.425 216.978 314.987 224.655Z" fill="#12F56E"/>
<path d="M479.353 144.477C473.271 138.584 473.72 130.66 474.421 122.879C474.52 121.778 477.588 120.198 479.337 120.123C486.65 119.809 493.984 119.981 501.309 119.98C522.954 119.978 544.6 119.888 566.243 120.052C570.689 120.086 572.552 118.827 573.399 114.118C576.131 98.9437 575.723 84.0737 571.195 69.0894C577.522 81.4792 577.108 94.8609 575.623 108.34C575.333 110.975 574.335 113.57 574.314 116.188C574.276 120.833 572.156 121.725 567.809 121.695C538.654 121.493 509.496 121.6 480.34 121.624C478.859 121.625 477.379 121.779 475.461 121.886C474.465 129.817 475.581 137.152 479.353 144.477Z" fill="#21F575"/>
<path d="M464.079 173.358C472.493 175.449 480.955 178.548 489.691 180.078C505.555 182.856 520.739 179.712 535.134 172.596C536.452 171.945 537.909 171.575 539.678 171.06C515.249 185.339 490.004 186.896 464.079 173.358Z" fill="#21F575"/>
<path d="M613.865 155.603C614.265 150.305 614.43 144.552 615.37 138.928C617.116 128.478 618.861 117.988 621.49 107.741C623.098 101.474 626.352 95.6299 629.174 89.4148C622.138 102.436 621.084 117.336 618.103 131.701C616.488 139.486 615.339 147.368 613.865 155.603Z" fill="#21F575"/>
<path d="M566.926 142.801C554.988 141.6 543.275 140.735 531.252 143.875C531.926 140.864 533.883 139.773 537.215 139.869C546.627 140.138 556.05 140.001 565.468 140.013C567.305 140.016 569.273 139.879 566.926 142.801Z" fill="#21F575"/>
<path d="M526.606 147.861C526.528 148.602 526.362 149.806 525.677 150.325C516.405 157.349 498.985 160.059 489.214 153.31C502.342 158.132 514.738 156.251 526.606 147.861Z" fill="#21F575"/>
<path d="M341.125 177.349C344.21 178.092 347.471 179.181 350.767 180.15C359.885 182.832 368.997 182.399 378.119 180.076C379.859 179.633 381.693 179.563 383.907 179.385C369.755 184.495 355.365 185.142 341.125 177.349Z" fill="#21F575"/>
<path d="M10.5741 215.026C11.2049 222.71 10.2729 224.221 4.21948 224.974C5.96609 221.702 8.12202 218.443 10.5741 215.026Z" fill="#21F575"/>
<path d="M389.502 177.354C391.553 175.99 393.968 174.545 396.754 173.088C394.705 174.475 392.286 175.874 389.502 177.354Z" fill="#21F575"/>
<path d="M397.359 173.06C398.616 171.902 400.207 170.67 402.155 169.386C400.906 170.552 399.299 171.769 397.359 173.06Z" fill="#21F575"/>
<path d="M553.476 160.241C554.29 159.008 555.408 157.634 556.853 156.182C556.047 157.437 554.913 158.768 553.476 160.241Z" fill="#21F575"/>
<path d="M488.725 152.79C487.226 152.022 485.491 151.032 483.646 149.708C485.188 150.439 486.839 151.504 488.725 152.79Z" fill="#21F575"/>
<path d="M178.419 228.89C180.118 228.714 182.252 228.616 184.711 228.692C182.976 228.899 180.915 228.934 178.419 228.89Z" fill="#21F575"/>
<path d="M336.98 174.405C338.15 174.881 339.455 175.656 340.859 176.755C339.676 176.288 338.396 175.496 336.98 174.405Z" fill="#21F575"/>
<path d="M540.342 171.001C541.197 170.119 542.375 169.174 543.891 168.2C543.04 169.092 541.852 170.015 540.342 171.001Z" fill="#21F575"/>
<path d="M643.395 77.1089C644.519 76.4786 645.999 75.8085 647.848 75.1523C646.729 75.8005 645.239 76.4348 643.395 77.1089Z" fill="#21F575"/>
<path d="M561.397 151.013C561.898 149.889 562.69 148.616 563.776 147.182C563.276 148.302 562.482 149.583 561.397 151.013Z" fill="#21F575"/>
<path d="M384.606 179.477C385.704 178.825 387.148 178.065 388.967 177.314C387.878 178.005 386.415 178.687 384.606 179.477Z" fill="#21F575"/>
<path d="M456.788 167.49C457.669 167.979 458.667 168.774 459.805 169.866C458.932 169.374 457.919 168.586 456.788 167.49Z" fill="#21F575"/>
<path d="M530.593 143.969C530.075 144.843 529.26 145.839 528.098 146.888C528.599 145.991 529.447 145.04 530.593 143.969Z" fill="#21F575"/>
<path d="M461.061 171.346C461.835 171.553 462.742 172.052 463.815 172.826C463.052 172.614 462.123 172.125 461.061 171.346Z" fill="#21F575"/>
<path d="M648.357 75.2241C649.139 74.872 650.299 74.4966 651.84 74.1431C651.059 74.5103 649.896 74.8556 648.357 75.2241Z" fill="#21F575"/>
<path d="M545.605 167.36C546.027 166.718 546.745 165.956 547.79 165.131C547.379 165.792 546.64 166.516 545.605 167.36Z" fill="#21F575"/>
<path d="M557.401 156.04C557.7 155.299 558.283 154.423 559.192 153.448C558.907 154.201 558.297 155.053 557.401 156.04Z" fill="#21F575"/>
<path d="M559.633 153.304C559.789 152.763 560.216 152.061 560.92 151.2C560.766 151.742 560.335 152.442 559.633 153.304Z" fill="#21F575"/>
<path d="M550.392 163.151C550.652 162.635 551.218 162.02 552.085 161.287C551.824 161.796 551.262 162.424 550.392 163.151Z" fill="#21F575"/>
<path d="M548.323 165.035C548.574 164.532 549.128 163.941 549.96 163.212C549.7 163.699 549.163 164.323 548.323 165.035Z" fill="#21F575"/>
<path d="M483.387 149.115C482.937 148.903 482.331 148.467 481.689 147.725C482.179 147.909 482.705 148.4 483.387 149.115Z" fill="#21F575"/>
<path d="M173.31 7.0058C173.356 6.63217 173.673 6.08566 174.245 5.33545C174.194 5.69882 173.887 6.26587 173.31 7.0058Z" fill="#21F575"/>
<path d="M566.125 60.6364C565.849 60.4613 565.52 59.9724 565.131 59.1907C565.405 59.3727 565.739 59.8477 566.125 60.6364Z" fill="#21F575"/>
<path d="M565.42 145.062C565.435 144.673 565.726 144.137 566.269 143.407C566.246 143.781 565.971 144.348 565.42 145.062Z" fill="#21F575"/>
<path d="M402.553 169.439C402.679 169.122 403.086 168.687 403.775 168.141C403.65 168.461 403.243 168.891 402.553 169.439Z" fill="#21F575"/>
<path d="M481.467 147.169C481.177 147.061 480.733 146.712 480.195 146.087C480.505 146.184 480.909 146.556 481.467 147.169Z" fill="#21F575"/>
<path d="M564.309 146.902C564.294 146.521 564.549 145.98 565.011 145.219C565.005 145.58 564.792 146.161 564.309 146.902Z" fill="#21F575"/>
<path d="M405.283 167.028C405.248 166.84 405.5 166.593 405.958 166.179C405.965 166.332 405.767 166.65 405.283 167.028Z" fill="#21F575"/>
<path d="M562.038 55.7029C561.835 55.7595 561.585 55.5321 561.169 55.111C561.333 55.0845 561.661 55.2518 562.038 55.7029Z" fill="#21F575"/>
<path d="M335.826 173.338C335.988 173.288 336.292 173.499 336.802 173.894C336.662 173.919 336.315 173.759 335.826 173.338Z" fill="#21F575"/>
<path d="M565.023 58.7095C564.832 58.7582 564.588 58.5229 564.176 58.1001C564.329 58.0835 564.65 58.2546 565.023 58.7095Z" fill="#21F575"/>
<path d="M564.052 57.7028C563.854 57.7567 563.607 57.5212 563.183 57.0992C563.338 57.0796 563.671 57.2465 564.052 57.7028Z" fill="#21F575"/>
<path d="M563.065 56.6953C562.867 56.7539 562.611 56.5263 562.182 56.1062C562.342 56.0788 562.674 56.2439 563.065 56.6953Z" fill="#21F575"/>
<path d="M459.958 170.296C460.163 170.238 460.414 170.463 460.83 170.881C460.665 170.908 460.335 170.743 459.958 170.296Z" fill="#21F575"/>
<path d="M544.312 168.143C544.294 167.953 544.595 167.719 545.118 167.303C545.103 167.447 544.867 167.772 544.312 168.143Z" fill="#21F575"/>
<path d="M404.277 167.993C404.237 167.817 404.468 167.57 404.892 167.162C404.905 167.307 404.726 167.615 404.277 167.993Z" fill="#21F575"/>
<path d="M455.826 166.356C456.034 166.303 456.294 166.567 456.756 167.018C456.598 167.027 456.238 166.851 455.826 166.356Z" fill="#21F575"/>
<path d="M406.29 166.063C406.274 165.868 406.557 165.629 407.072 165.233C407.065 165.391 406.826 165.705 406.29 166.063Z" fill="#21F575"/>
<path d="M329.908 165.437C330.094 165.433 330.237 165.692 330.368 166.209C330.136 166.253 329.973 165.997 329.908 165.437Z" fill="#12F56E"/>
<path d="M552.386 161.247C552.344 161.047 552.618 160.755 553.107 160.255C553.115 160.416 552.909 160.785 552.386 161.247Z" fill="#21F575"/>
<path d="M613.049 158.585C613.126 158.581 613.054 158.72 613.061 158.756C613.068 158.791 612.972 158.589 613.049 158.585Z" fill="#21F575"/>
<path d="M629.403 89.2177C629.344 88.9669 629.61 88.7068 630.083 88.2568C630.102 88.4474 629.915 88.8279 629.403 89.2177Z" fill="#21F575"/>
<path d="M480.096 145.71C479.917 145.709 479.687 145.397 479.303 144.833C479.448 144.854 479.746 145.126 480.096 145.71Z" fill="#21F575"/>
<path d="M27.4004 35.0353C42.3163 35.3066 56.7786 35.7491 71.2426 35.8209C79.377 35.8613 87.514 35.2751 95.651 35.0088C96.9766 34.9654 98.3727 34.8983 99.6132 35.2619C100.351 35.4781 101.044 36.4385 101.348 37.2228C101.453 37.4951 100.41 38.4455 99.7412 38.7215C99.0108 39.0229 98.1061 38.9565 97.2773 38.9567C71.2966 38.9638 45.3158 38.9609 19.3351 38.9449C18.8771 38.9446 18.4193 38.7659 17.7216 37.7453C20.7969 36.8473 23.8722 35.9493 27.4004 35.0353Z" fill="#12F56E"/>
<path d="M78.2174 116.585C77.258 117.599 76.1787 118.854 75.0513 118.899C63.5928 119.354 52.1271 119.641 40.6616 119.891C39.1179 119.924 37.564 119.496 36.0148 119.281C35.9593 118.785 35.9037 118.288 35.8481 117.792C37.8951 117.29 39.9311 116.408 41.9907 116.349C53.7551 116.012 65.525 115.866 77.2935 115.688C77.551 115.684 77.8144 116.063 78.2174 116.585Z" fill="#12F56E"/>
<path d="M396.039 80.8585C381.363 65.8059 355.943 68.7413 343.792 87.1518C334.331 101.487 330.896 117.544 332.897 134.668C333.682 141.382 337.304 146.358 342.86 150.472C341.208 151.324 339.208 152.7 337.595 152.34C330.743 150.811 326.461 146.604 326.153 139.227C325.733 129.142 324.681 119.01 325.277 108.979C325.758 100.877 328.037 92.8379 329.968 84.8799C331.545 78.3812 334.941 73.6633 342.453 72.3283C346.135 71.6738 349.261 68.3195 352.872 66.7104C356.421 65.129 360.189 63.5783 363.994 63.1209C374.881 61.8121 385.189 63.677 394.006 70.7567C397.226 73.3421 399.411 76.3987 396.039 80.8585Z" fill="#12F56E"/>
<path d="M346.546 154.488C347.798 154.763 348.786 155.117 349.774 155.471C349.425 155.921 349.076 156.371 348.728 156.821C347.912 156.07 347.097 155.319 346.546 154.488Z" fill="#12F56E"/>
<path d="M205.958 117.156C203.46 103.831 201.002 90.9328 198.502 78.0422C197.117 70.9024 195.657 63.7773 194.246 56.6424C194.118 55.9923 193.86 55.2266 194.075 54.6747C194.896 52.5624 195.885 50.5154 196.811 48.4441C197.768 50.1828 199.251 51.8218 199.602 53.6751C204.987 82.1307 210.234 110.613 215.466 139.097C215.653 140.118 215.363 141.228 215.289 142.402C210.552 140.893 207.118 131.357 205.958 117.156Z" fill="#12F56E"/>
<path d="M562.034 94.7268C562.103 94.9088 562.06 95.0861 562.016 95.2634C561.985 95.083 561.953 94.9026 562.034 94.7268Z" fill="#21F575"/>
<path d="M540.797 79.8964C540.475 79.7346 540.075 79.2698 539.603 78.4858C539.927 78.6423 540.323 79.1179 540.797 79.8964Z" fill="#21F575"/>
<path d="M539.609 78.2261C539.344 78.1291 538.983 77.799 538.523 77.2407C538.787 77.3394 539.15 77.6662 539.609 78.2261Z" fill="#21F575"/>
<path d="M541.571 81.0824C541.472 81.037 541.18 80.8044 540.88 80.269C541.04 80.2759 541.209 80.5856 541.571 81.0824Z" fill="#21F575"/>
</svg>
