<svg xmlns="http://www.w3.org/2000/svg" version="1.1" id="Layer_1" x="0px" y="0px" width="100%" viewBox="0 0 1024 560" enable-background="new 0 0 1024 560" xml:space="preserve">
<path fill="#FFFFFF" opacity="1.000000" stroke="none" d=" M711.894836,309.973938   C712.626343,284.861664 720.222717,263.395844 740.742981,248.108139   C761.421875,232.702240 801.029785,228.081161 825.380737,256.898132   C825.809753,252.236557 826.498352,248.011658 826.498596,243.786728   C826.498779,239.974319 828.132568,238.861450 831.636658,238.945526   C837.630493,239.089340 843.639587,239.179291 849.624878,238.907928   C854.567261,238.683838 855.293518,241.213226 855.284302,245.386749   C855.187500,289.367218 855.226379,333.347992 855.229248,377.328674   C855.230408,393.988037 855.126038,410.648590 855.311890,427.305908   C855.361145,431.724152 854.153198,433.647125 849.395935,433.410645   C842.416199,433.063690 835.405945,433.263153 828.409973,433.342468   C825.572388,433.374634 824.171082,432.542267 824.202393,429.343201   C824.384521,410.708984 824.366943,392.072845 824.512573,373.438110   C824.538696,370.095642 824.391541,366.815826 823.661865,363.597534   C822.051086,363.048584 821.468323,364.319611 820.759888,365.100922   C807.363708,379.873932 790.096558,384.140411 771.229248,382.011627   C744.404114,378.984955 726.335938,364.012848 716.870056,338.843048   C713.452026,329.754364 712.250549,320.141174 711.894836,309.973938  M804.904846,351.465088   C810.346436,347.750214 815.157288,343.336823 817.983948,337.324310   C827.681702,316.696686 827.475708,296.231598 814.781616,277.027863   C800.281433,255.091690 765.488708,256.177124 751.627869,278.497955   C743.673767,291.306824 742.549561,305.291901 744.275452,319.845032   C748.226440,353.160461 778.790833,365.103760 804.904846,351.465088  z"/>
<path fill="#FFFFFF" opacity="1.000000" stroke="none" d=" M379.575195,349.355133   C372.069397,371.909058 347.595490,389.035278 332.921661,390.169006   C332.700104,388.804810 333.900208,388.556915 334.662415,388.036621   C355.010071,374.146301 363.957733,354.504883 361.376343,330.455261   C358.866364,307.070679 344.275665,292.415222 322.833496,284.387634   C306.340118,278.212769 288.862427,276.647247 271.559448,274.228241   C255.967041,272.048401 240.669754,268.308258 228.076279,258.154175   C212.466934,245.568420 209.635803,228.792496 214.235001,210.308212   C220.041031,186.973679 241.537491,170.574982 266.485382,169.692352   C281.695404,169.154236 296.341980,171.540390 310.451294,177.231857   C319.006989,180.683105 327.870972,182.865250 337.075989,183.503906   C345.575317,184.093597 352.597687,187.965561 357.788452,194.277420   C365.489502,203.641800 373.892303,212.623138 379.250366,223.660538   C384.417358,234.304398 376.290955,245.668152 364.492035,243.702988   C350.863678,241.433075 337.660828,237.135056 325.047760,231.395905   C319.827789,229.020737 315.882294,224.904938 312.593384,220.122559   C301.428040,203.887222 285.218964,199.914230 266.925079,202.363922   C256.004730,203.826233 250.150970,210.587830 249.177292,220.918198   C248.129776,232.032135 252.261185,238.893280 262.987549,242.998199   C272.890747,246.788086 283.483887,247.226685 293.850403,248.676483   C316.693665,251.871201 338.571533,257.409454 357.195099,272.160706   C380.093719,290.298065 389.299988,321.146637 379.575195,349.355133  z"/>
<path fill="#FFFFFF" opacity="1.000000" stroke="none" d=" M184.705597,259.021423   C172.367889,220.232330 200.245529,184.846115 228.955475,176.264450   C229.343567,178.533554 227.292618,178.886322 226.124268,179.802002   C205.405334,196.040207 197.944107,226.233795 209.492981,248.561676   C216.443100,261.998566 228.297150,269.890442 241.972931,275.235779   C258.426025,281.666687 275.972443,282.940704 293.203613,285.709991   C308.906097,288.233643 324.289551,291.761017 337.196350,301.939423   C347.697144,310.220428 352.438568,321.308105 353.357544,334.401855   C354.718079,353.786774 348.435394,369.972107 333.911285,383.037292   C321.060913,394.596832 300.415497,397.573303 284.832001,390.152405   C271.176971,383.649841 261.519318,372.626282 251.695633,361.749451   C247.118225,356.681305 242.663651,351.506226 237.403290,347.112366   C223.656311,335.629883 208.469727,334.375305 192.993622,343.414642   C189.769180,345.298004 186.511612,347.124634 182.872070,348.537872   C185.284241,339.559692 191.010941,333.044556 198.192245,327.903687   C214.470078,316.251007 234.160660,316.747833 251.884216,328.725830   C260.334198,334.436523 267.610107,341.581390 275.633148,347.806030   C282.641144,353.243073 289.939606,358.151154 298.901855,359.860443   C311.325165,362.229797 322.590485,356.452789 325.493317,346.171509   C328.835144,334.335419 322.976318,323.987183 310.312836,319.209198   C299.621033,315.175201 288.380157,313.829376 277.176544,312.269684   C258.517761,309.672058 240.019180,306.360779 222.746185,298.406952   C205.132294,290.296204 191.593536,278.106903 184.705597,259.021423  z"/>
<path fill="#FFFFFF" opacity="1.000000" stroke="none" d=" M672.049255,250.955917   C682.936035,262.558350 686.835266,276.566040 687.044250,291.534515   C687.432556,319.344025 687.103516,347.162933 687.234558,374.977203   C687.253662,379.029938 685.602173,380.210999 681.870972,380.114197   C675.212952,379.941376 668.542725,379.869080 661.887756,380.078979   C657.638000,380.213043 656.558899,378.390289 656.582886,374.405609   C656.727356,350.422333 656.725586,326.437500 656.611511,302.453918   C656.587830,297.476746 656.236450,292.445587 655.437195,287.536835   C651.002441,260.298309 624.177979,256.862366 607.842224,265.054321   C595.353027,271.317383 589.594849,282.313995 588.348694,295.627106   C586.141113,319.213196 587.709167,342.890442 587.378235,366.525574   C587.189819,379.982300 587.346985,379.986847 574.007263,379.986603   C570.509644,379.986542 567.011658,379.993103 563.514404,379.950928   C556.866028,379.870697 556.748413,379.759247 556.745605,373.260712   C556.727905,332.121277 556.684875,290.981812 556.728882,249.842422   C556.741821,237.725998 555.010315,239.067078 567.661743,238.991837   C571.658936,238.968063 575.660889,239.110779 579.652466,238.960541   C583.544067,238.814041 585.442383,240.125595 585.423462,244.385864   C585.406860,248.124680 586.245544,251.867279 586.732361,255.818756   C614.088501,230.906326 642.231262,228.268356 672.049255,250.955917  z"/>
<path fill="#FFFFFF" opacity="1.000000" stroke="none" d=" M463.688873,355.088776   C466.845734,355.040588 468.094727,356.407593 468.094177,359.070312   C468.092957,364.901520 468.119781,370.732727 468.133911,376.563934   C468.139069,378.695374 467.300995,380.180542 464.971832,380.182037   C456.831329,380.187317 448.644501,381.078888 440.613556,378.895508   C424.975555,374.643890 416.858429,363.668060 416.735016,345.775421   C416.554565,319.617645 416.644043,293.457947 416.643616,267.299072   C416.643188,241.140274 416.760101,214.980972 416.605347,188.823196   C416.579590,184.469376 417.921692,182.852707 422.292847,183.024994   C428.613800,183.274139 434.967407,183.320221 441.279663,182.965332   C446.220856,182.687515 447.460052,184.639694 447.445404,189.348190   C447.295135,237.666687 447.346222,285.985779 447.341370,334.304718   C447.341187,335.970886 447.342865,337.637054 447.346008,339.303223   C447.370300,352.178192 450.265015,355.051880 463.688873,355.088776  z"/>
<path fill="#FFFFFF" opacity="1.000000" stroke="none" d=" M523.091675,250.052353   C523.079773,290.841370 523.077698,331.139587 523.050354,371.437775   C523.044495,380.013458 523.001892,380.002716 514.658813,379.990814   C509.163696,379.983002 503.657318,379.798950 498.176727,380.087372   C493.317993,380.343109 491.910767,378.321289 491.930969,373.633057   C492.078339,339.496765 492.014679,305.359528 492.006897,271.222595   C492.004852,262.230530 492.072510,253.236267 491.891876,244.247360   C491.814331,240.387299 493.289856,238.807465 497.163879,238.908325   C503.487518,239.072998 509.818329,238.957794 516.146118,238.970703   C522.813110,238.984314 523.088074,239.270523 523.089966,246.064468   C523.090271,247.230148 523.091614,248.395844 523.091675,250.052353  z"/>
<path fill="#FFFFFF" opacity="1.000000" stroke="none" d=" M489.119293,194.408051   C495.347382,185.022675 504.400391,181.451874 513.761902,184.422272   C524.839783,187.937256 530.530640,199.077118 526.446045,209.251450   C522.331177,219.501083 509.434296,224.489990 499.288177,219.756989   C488.624146,214.782379 484.700867,205.299744 489.119293,194.408051  z"/>
</svg>
